<?xml version="1.0" encoding="utf-8"?>
<!-- Generator: Adobe Illustrator 18.1.1, SVG Export Plug-In . SVG Version: 6.00 Build 0)  -->
<svg version="1.1" id="Layer_1" xmlns="http://www.w3.org/2000/svg" xmlns:xlink="http://www.w3.org/1999/xlink" x="0px" y="0px"
	 viewBox="35 318.9 682.7 157.1" enable-background="new 35 318.9 682.7 157.1" xml:space="preserve">
<g>
	<path fill="#00412F" d="M259.5,374.5h-28.1V473h-42.1V322.1h113.5c-2.4,2.4-1.5,5.7-4.7,10.3c-4.2,5.6-8.3,3-11.7,7
		c-3.1,3.8-1.8,7.7-4.7,11.6c-4.2,5.6-10.6,3.5-15.2,9.4C262.8,365.2,263,369.8,259.5,374.5"/>
</g>
<path fill="#00412F" d="M129.8,322.1c-2.3,2.4-1.7,6.2-4.9,10.8c-4.2,5.6-8.3,3-11.6,7.1c-3.1,3.8-1.8,7.7-4.7,11.6
	c-4.2,5.6-10.5,3.5-15.2,9.4c-3.7,4.7-3.5,9.3-7.1,14h55v49.1H95.8c-3.8,0-6.8,0.4-9.4-2.4c-2-2.1-2.4-4.1-2.3-7l0.2-92.6h-49
	L35,428.8c0,12.4,8.1,24.6,12.8,29.2c5.9,5.9,17.9,15,31.6,15h64.2l38.8-44.2V322.1H129.8z"/>
<g>
	<polygon fill="#00412F" points="396.3,376.2 347.2,376.2 347.2,322.1 306.4,322.1 306.4,473 347.2,473 347.2,411.6 396.3,411.6 
		396.3,473 437.1,473 437.1,322.1 396.3,322.1 	"/>
	<path fill="#00412F" d="M528.4,381.3c-4.6-1.3-9.2-2.4-13.6-3.4c-15.5-3.7-28.9-6.9-28.9-15.2c0-8.7,9.2-11.7,17.8-11.7
		c5,0,14.2,0.8,19.4,6.3c2.6,2.7,3.8,6.3,3.6,10.6l0,1h40.8l0-1c-0.1-15.8-6.7-28.7-19.2-37.4c-10.7-7.5-25.4-11.6-41.4-11.6
		c-30.7,0-61.7,14.3-61.7,46.2c0,27.6,22.4,37.7,44.3,43.9c3.9,1.1,7.7,2.1,11.4,3c16.4,4.1,30.6,7.7,30.6,17.7
		c0,10.5-11.8,14.2-22.8,14.2c-18.1,0-26.4-6.9-27.2-22.2l0-0.9h-40.7l0,1c0.2,33.9,24.7,54.2,65.6,54.2c19.8,0,65.9-5,65.9-50.8
		C572.3,397.2,548.8,387,528.4,381.3z"/>
	<path fill="#00412F" d="M677,413.1l-0.1,0.9c-1.5,17.2-11.8,26.6-29.1,26.6c-24.8,0-33.6-22.3-33.6-43.2s8.8-43.2,33.6-43.2
		c16.5,0,27.1,8.1,29.1,22.1l0.1,0.9h40.7l0-1c-1-35.8-35.9-57.3-69-57.3c-43.6,0-75.2,33-75.2,78.6s31.6,78.6,75.2,78.6
		c39.9,0,66.9-24.3,69-61.8l0.1-1L677,413.1L677,413.1z"/>
</g>
</svg>
